<?xml version="1.0" standalone="no"?>
<!DOCTYPE svg PUBLIC "-//W3C//DTD SVG 20010904//EN"
 "http://www.w3.org/TR/2001/REC-SVG-20010904/DTD/svg10.dtd">
<svg version="1.0" xmlns="http://www.w3.org/2000/svg"
 width="32.000000pt" height="32.000000pt" viewBox="0 0 32.000000 32.000000"
 preserveAspectRatio="xMidYMid meet">

<g transform="translate(0.000000,32.000000) scale(0.100000,-0.100000)"
fill="#000000" stroke="none">
<path d="M146 173 c-6 -14 -5 -15 5 -6 7 7 10 15 7 18 -3 3 -9 -2 -12 -12z"/>
<path d="M181 180 c-28 -17 -3 -40 41 -40 32 0 39 3 28 10 -11 7 -11 10 -2 10
7 0 10 5 7 11 -4 5 -12 8 -18 6 -7 -2 -19 -1 -28 4 -8 4 -21 4 -28 -1z m39
-23 c10 -4 8 -6 -7 -6 -12 -1 -24 3 -27 8 -7 11 6 24 13 13 3 -5 13 -12 21
-15z"/>
</g>
</svg>
